<svg xmlns="http://www.w3.org/2000/svg" xmlns:xlink="http://www.w3.org/1999/xlink" viewBox="0 0 64 64"><defs><style>.cls-1{fill:#ccd3eb;}.cls-2{fill:#f5f7ff;}.cls-3{fill:#96a1c3;}.cls-4{fill:#647499;}.cls-5{fill:url(#linear-gradient);}.cls-6{fill:#0074ff;}.cls-7{fill:#f0f7fc;}.cls-8{fill:#d7e9f7;}.cls-9{fill:#4795ea;}.cls-10{fill:#eb7f58;}.cls-11{fill:#b4cde1;}.cls-12{fill:#033c59;}</style><linearGradient id="linear-gradient" x1="30" y1="44.96" x2="34" y2="44.96" gradientUnits="userSpaceOnUse"><stop offset="0" stop-color="#d3e6f5"/><stop offset="1" stop-color="#f0f7fc"/></linearGradient></defs><title>Website</title><g id="Website"><path class="cls-1" d="M60,12V40H4V12A6,6,0,0,1,8,6.35,5.8,5.8,0,0,1,10,6H54A6,6,0,0,1,60,12Z"/><path class="cls-2" d="M57,12V40H4V12A6,6,0,0,1,8,6.35,5.8,5.8,0,0,1,10,6H51A6,6,0,0,1,57,12Z"/><path class="cls-3" d="M60,40v4a6,6,0,0,1-6,6H10a6,6,0,0,1-6-6V40Z"/><polygon class="cls-4" points="42.29 61.95 21.71 61.95 25.83 49.95 38.17 49.95 42.29 61.95"/><path class="cls-5" d="M33,46H31a1,1,0,0,1,0-2h2a1,1,0,0,1,0,2Z"/><path class="cls-6" d="M55,4v8H9V4a2,2,0,0,1,2-2H53A2,2,0,0,1,55,4Z"/><path class="cls-7" d="M55,12V33a2,2,0,0,1-2,2H11a2,2,0,0,1-2-2V12Z"/><path class="cls-8" d="M49,9a2,2,0,1,1,2-2A2,2,0,0,1,49,9Zm0-2Z"/><path class="cls-9" d="M43,9a2,2,0,1,1,2-2A2,2,0,0,1,43,9Zm0-2Z"/><path class="cls-10" d="M37,9a2,2,0,1,1,2-2A2,2,0,0,1,37,9Zm0-2Z"/><path class="cls-9" d="M31,8H14a1,1,0,0,1,0-2H31a1,1,0,0,1,0,2Z"/><rect class="cls-1" x="14" y="16" width="11" height="4" rx="1"/><rect class="cls-1" x="14" y="24" width="11" height="8" rx="1"/><rect class="cls-1" x="29" y="26" width="21" height="6" rx="1"/><path class="cls-11" d="M50,21H29a1,1,0,0,1,0-2H50a1,1,0,0,1,0,2Z"/><path class="cls-11" d="M41,17H29a1,1,0,0,1,0-2H41a1,1,0,0,1,0,2Z"/><path class="cls-12" d="M19,39H18a1,1,0,0,0,0,2h1a1,1,0,0,0,0-2Z"/><path class="cls-12" d="M33,44H31a1,1,0,0,0,0,2h2a1,1,0,0,0,0-2Z"/><path class="cls-12" d="M56,5.3V4a3,3,0,0,0-3-3H11A3,3,0,0,0,8,4V5.3A7,7,0,0,0,3,12V44a7,7,0,0,0,7,7H24.43L21,61H20a1,1,0,0,0,0,2H44a1,1,0,0,0,0-2H43L39.57,51H54a7,7,0,0,0,7-7V12A7,7,0,0,0,56,5.3ZM10,13H54V34a1,1,0,0,1-1,1H11a1,1,0,0,1-1-1Zm0-9a1,1,0,0,1,1-1H53a1,1,0,0,1,1,1v7H10ZM40.89,61H23.11l3.43-10H37.46ZM54,49H10a5,5,0,0,1-5-5V41h9a1,1,0,0,0,0-2H5V12A4.94,4.94,0,0,1,8,7.44V34a3,3,0,0,0,3,3H53a3,3,0,0,0,3-3V7.44A4.94,4.94,0,0,1,59,12V39H23a1,1,0,0,0,0,2H59v3A5,5,0,0,1,54,49Z"/><path class="cls-3" d="M14,21H25a1,1,0,0,0,1-1V16a1,1,0,0,0-1-1H14a1,1,0,0,0-1,1v4A1,1,0,0,0,14,21Zm1-4h9v2H15Z"/><path class="cls-3" d="M14,33H25a1,1,0,0,0,1-1V24a1,1,0,0,0-1-1H14a1,1,0,0,0-1,1v8A1,1,0,0,0,14,33Zm1-8h9v6H15Z"/><path class="cls-3" d="M29,33H50a1,1,0,0,0,1-1V26a1,1,0,0,0-1-1H29a1,1,0,0,0-1,1v6A1,1,0,0,0,29,33Zm1-6H49v4H30Z"/><path class="cls-3" d="M29,21H50a1,1,0,0,0,0-2H29a1,1,0,0,0,0,2Z"/><path class="cls-3" d="M29,17H41a1,1,0,0,0,0-2H29a1,1,0,0,0,0,2Z"/><circle class="cls-2" cx="49" cy="7" r="2"/><circle class="cls-2" cx="43" cy="7" r="2"/><circle class="cls-2" cx="37" cy="7" r="2"/><path class="cls-2" d="M31,6H14a1,1,0,0,0,0,2H31a1,1,0,0,0,0-2Z"/></g></svg>